# xmcd
# 
# Track frame offsets:
#     150
#     19162
#     35550
#     50969
#     69679
#     87058
#     101681
#     117839
#     135528
#     153275
#     170451
#     188837
# 
# Disc length: 2722
# 
# Revision: 2
# Processed by: cddbd v1.5.2PL0 Copyright (c) Steve Scherf et al.
# Submitted via: fre:ac v1.0.17
# 
DISCID=a00aa00c
DTITLE=Future Islands - The Far Field
DYEAR=2017
DGENRE=Alternative Rock
TTITLE0=Aladdin
TTITLE1=Time On her Side
TTITLE2=Ran
TTITLE3=Beauty of the Road
TTITLE4=Cave
TTITLE5=Through the Roses
TTITLE6=North Star
TTITLE7=Ancient Water
TTITLE8=Candles
TTITLE9=Day Glow Fire
TTITLE10=Shadows
TTITLE11=Black Rose
EXTD=
EXTT0=
EXTT1=
EXTT2=
EXTT3=
EXTT4=
EXTT5=
EXTT6=
EXTT7=
EXTT8=
EXTT9=
EXTT10=
EXTT11=
PLAYORDER=
